<svg xmlns="http://www.w3.org/2000/svg" xmlns:xlink="http://www.w3.org/1999/xlink" width="350" zoomAndPan="magnify" viewBox="0 0 262.5 112.499997" height="150" preserveAspectRatio="xMidYMid meet" version="1.0"><defs><g/><clipPath id="13d76d4c48"><path d="M 0.332031 0 L 261.671875 0 L 261.671875 112.003906 L 0.332031 112.003906 Z M 0.332031 0 " clip-rule="nonzero"/></clipPath><clipPath id="3fefef2230"><path d="M 75.792969 42.199219 L 105.710938 42.199219 L 105.710938 69.367188 L 75.792969 69.367188 Z M 75.792969 42.199219 " clip-rule="nonzero"/></clipPath><clipPath id="5cffffa8db"><path d="M 90.753906 42.199219 C 88.78125 42.199219 86.832031 42.609375 85.011719 43.398438 C 83.191406 44.1875 81.539062 45.34375 80.144531 46.804688 C 78.753906 48.265625 77.648438 50 76.894531 51.90625 C 76.289062 53.441406 75.917969 55.066406 75.796875 56.714844 C 75.792969 56.742188 75.792969 56.769531 75.792969 56.796875 L 75.792969 56.800781 C 75.792969 57.339844 76.183594 57.800781 76.703125 57.859375 C 76.742188 57.863281 76.777344 57.863281 76.8125 57.863281 C 77.316406 57.863281 77.75 57.472656 77.820312 56.9375 C 78.0625 54.992188 79.691406 53.457031 81.695312 53.457031 C 83.328125 53.457031 84.71875 54.480469 85.304688 55.917969 C 85.464844 56.308594 85.832031 56.5625 86.238281 56.5625 C 86.648438 56.5625 87.015625 56.308594 87.175781 55.914062 C 87.613281 54.835938 88.496094 53.992188 89.59375 53.640625 L 89.59375 64.703125 C 89.589844 64.703125 89.589844 64.707031 89.589844 64.707031 C 89.589844 64.839844 89.578125 64.972656 89.554688 65.105469 C 89.523438 65.265625 89.476562 65.425781 89.414062 65.578125 C 89.296875 65.855469 89.125 66.109375 88.910156 66.320312 C 88.691406 66.53125 88.4375 66.699219 88.152344 66.816406 C 87.871094 66.929688 87.570312 66.988281 87.265625 66.988281 C 86.957031 66.988281 86.65625 66.929688 86.375 66.816406 C 86.09375 66.703125 85.835938 66.53125 85.621094 66.320312 C 85.40625 66.109375 85.234375 65.855469 85.117188 65.578125 C 84.925781 65.121094 84.53125 64.703125 84.027344 64.703125 L 83.730469 64.703125 C 83.0625 64.703125 82.507812 65.246094 82.675781 65.878906 C 82.730469 66.085938 82.800781 66.289062 82.882812 66.488281 C 83.121094 67.054688 83.472656 67.566406 83.910156 68 C 84.351562 68.433594 84.875 68.777344 85.449219 69.011719 C 86.023438 69.246094 86.640625 69.367188 87.265625 69.367188 C 87.46875 69.367188 87.675781 69.351562 87.878906 69.328125 C 88.289062 69.273438 88.695312 69.167969 89.078125 69.011719 C 89.65625 68.777344 90.175781 68.433594 90.617188 68 C 91.058594 67.566406 91.40625 67.054688 91.644531 66.488281 C 91.882812 65.921875 92.007812 65.316406 92.007812 64.703125 L 92.007812 53.671875 C 93.101562 54.058594 93.972656 54.933594 94.378906 56.039062 C 94.53125 56.449219 94.90625 56.71875 95.328125 56.71875 C 95.75 56.71875 96.128906 56.449219 96.277344 56.035156 C 96.828125 54.53125 98.230469 53.457031 99.875 53.457031 C 101.832031 53.457031 103.4375 54.976562 103.6875 56.925781 C 103.753906 57.460938 104.191406 57.851562 104.691406 57.851562 C 104.726562 57.851562 104.765625 57.851562 104.800781 57.847656 C 105.316406 57.789062 105.707031 57.335938 105.710938 56.796875 L 105.710938 56.78125 C 105.710938 56.753906 105.710938 56.730469 105.707031 56.703125 C 105.585938 55.058594 105.214844 53.4375 104.609375 51.90625 C 103.855469 50 102.753906 48.265625 101.359375 46.804688 C 99.96875 45.34375 98.3125 44.1875 96.492188 43.398438 C 94.671875 42.609375 92.722656 42.199219 90.753906 42.199219 Z M 90.753906 42.199219 " clip-rule="nonzero"/></clipPath><clipPath id="8b2808cb29"><path d="M 0.792969 0.199219 L 30.710938 0.199219 L 30.710938 27.367188 L 0.792969 27.367188 Z M 0.792969 0.199219 " clip-rule="nonzero"/></clipPath><clipPath id="9d94332d24"><path d="M 15.753906 0.199219 C 13.78125 0.199219 11.832031 0.609375 10.011719 1.398438 C 8.191406 2.1875 6.539062 3.34375 5.144531 4.804688 C 3.753906 6.265625 2.648438 8 1.894531 9.90625 C 1.289062 11.441406 0.917969 13.066406 0.796875 14.714844 C 0.792969 14.742188 0.792969 14.769531 0.792969 14.796875 L 0.792969 14.800781 C 0.792969 15.339844 1.183594 15.800781 1.703125 15.859375 C 1.742188 15.863281 1.777344 15.863281 1.8125 15.863281 C 2.316406 15.863281 2.75 15.472656 2.820312 14.9375 C 3.0625 12.992188 4.691406 11.457031 6.695312 11.457031 C 8.328125 11.457031 9.71875 12.480469 10.304688 13.917969 C 10.464844 14.308594 10.832031 14.5625 11.238281 14.5625 C 11.648438 14.5625 12.015625 14.308594 12.175781 13.914062 C 12.613281 12.835938 13.496094 11.992188 14.59375 11.640625 L 14.59375 22.703125 C 14.589844 22.703125 14.589844 22.707031 14.589844 22.707031 C 14.589844 22.839844 14.578125 22.972656 14.554688 23.105469 C 14.523438 23.265625 14.476562 23.425781 14.414062 23.578125 C 14.296875 23.855469 14.125 24.109375 13.910156 24.320312 C 13.691406 24.53125 13.4375 24.699219 13.152344 24.816406 C 12.871094 24.929688 12.570312 24.988281 12.265625 24.988281 C 11.957031 24.988281 11.65625 24.929688 11.375 24.816406 C 11.09375 24.703125 10.835938 24.53125 10.621094 24.320312 C 10.40625 24.109375 10.234375 23.855469 10.117188 23.578125 C 9.925781 23.121094 9.53125 22.703125 9.027344 22.703125 L 8.730469 22.703125 C 8.0625 22.703125 7.507812 23.246094 7.675781 23.878906 C 7.730469 24.085938 7.800781 24.289062 7.882812 24.488281 C 8.121094 25.054688 8.472656 25.566406 8.910156 26 C 9.351562 26.433594 9.875 26.777344 10.449219 27.011719 C 11.023438 27.246094 11.640625 27.367188 12.265625 27.367188 C 12.46875 27.367188 12.675781 27.351562 12.878906 27.328125 C 13.289062 27.273438 13.695312 27.167969 14.078125 27.011719 C 14.65625 26.777344 15.175781 26.433594 15.617188 26 C 16.058594 25.566406 16.40625 25.054688 16.644531 24.488281 C 16.882812 23.921875 17.007812 23.316406 17.007812 22.703125 L 17.007812 11.671875 C 18.101562 12.058594 18.972656 12.933594 19.378906 14.039062 C 19.53125 14.449219 19.90625 14.71875 20.328125 14.71875 C 20.75 14.71875 21.128906 14.449219 21.277344 14.035156 C 21.828125 12.53125 23.230469 11.457031 24.875 11.457031 C 26.832031 11.457031 28.4375 12.976562 28.6875 14.925781 C 28.753906 15.460938 29.191406 15.851562 29.691406 15.851562 C 29.726562 15.851562 29.765625 15.851562 29.800781 15.847656 C 30.316406 15.789062 30.707031 15.335938 30.710938 14.796875 L 30.710938 14.78125 C 30.710938 14.753906 30.710938 14.730469 30.707031 14.703125 C 30.585938 13.058594 30.214844 11.4375 29.609375 9.90625 C 28.855469 8 27.753906 6.265625 26.359375 4.804688 C 24.96875 3.34375 23.3125 2.1875 21.492188 1.398438 C 19.671875 0.609375 17.722656 0.199219 15.753906 0.199219 Z M 15.753906 0.199219 " clip-rule="nonzero"/></clipPath><clipPath id="f35e19a022"><rect x="0" width="31" y="0" height="28"/></clipPath><clipPath id="c9978fcbbb"><path d="M 0.046875 7 L 14 7 L 14 24 L 0.046875 24 Z M 0.046875 7 " clip-rule="nonzero"/></clipPath><clipPath id="fba48579b0"><rect x="0" width="52" y="0" height="30"/></clipPath></defs><g clip-path="url(#13d76d4c48)"><path fill="#ffffff" d="M 0.332031 0 L 261.671875 0 L 261.671875 112.003906 L 0.332031 112.003906 Z M 0.332031 0 " fill-opacity="1" fill-rule="nonzero"/><path fill="#f2f0ef" d="M 0.332031 0 L 261.671875 0 L 261.671875 112.003906 L 0.332031 112.003906 Z M 0.332031 0 " fill-opacity="1" fill-rule="nonzero"/></g><g clip-path="url(#3fefef2230)"><g clip-path="url(#5cffffa8db)"><g transform="matrix(1, 0, 0, 1, 75, 42)"><g clip-path="url(#f35e19a022)"><g clip-path="url(#8b2808cb29)"><g clip-path="url(#9d94332d24)"><path fill="#0b43f2" d="M 0.792969 0.199219 L 30.710938 0.199219 L 30.710938 27.367188 L 0.792969 27.367188 Z M 0.792969 0.199219 " fill-opacity="1" fill-rule="nonzero"/></g></g></g></g></g></g><g transform="matrix(1, 0, 0, 1, 109, 41)"><g clip-path="url(#fba48579b0)"><g clip-path="url(#c9978fcbbb)"><g fill="#0b43f2" fill-opacity="1"><g transform="translate(0.157411, 23.154456)"><g><path d="M 12.265625 -16.0625 C 12.679688 -16.0625 13.019531 -15.9375 13.28125 -15.6875 C 13.539062 -15.445312 13.671875 -15.125 13.671875 -14.71875 C 13.671875 -14.320312 13.539062 -14.003906 13.28125 -13.765625 C 13.019531 -13.535156 12.679688 -13.421875 12.265625 -13.421875 L 8.671875 -13.421875 L 8.671875 -1.40625 C 8.671875 -1 8.523438 -0.660156 8.234375 -0.390625 C 7.941406 -0.128906 7.582031 0 7.15625 0 C 6.726562 0 6.375 -0.128906 6.09375 -0.390625 C 5.820312 -0.660156 5.6875 -1 5.6875 -1.40625 L 5.6875 -13.421875 L 2.09375 -13.421875 C 1.675781 -13.421875 1.335938 -13.539062 1.078125 -13.78125 C 0.816406 -14.03125 0.6875 -14.351562 0.6875 -14.75 C 0.6875 -15.132812 0.816406 -15.445312 1.078125 -15.6875 C 1.347656 -15.9375 1.6875 -16.0625 2.09375 -16.0625 Z M 12.265625 -16.0625 "/></g></g></g></g><g fill="#0b43f2" fill-opacity="1"><g transform="translate(13.736804, 23.154456)"><g><path d="M 4.59375 -1.40625 C 4.59375 -1 4.445312 -0.660156 4.15625 -0.390625 C 3.863281 -0.128906 3.523438 0 3.140625 0 C 2.722656 0 2.378906 -0.128906 2.109375 -0.390625 C 1.847656 -0.660156 1.71875 -1 1.71875 -1.40625 L 1.71875 -14.65625 C 1.71875 -15.050781 1.851562 -15.382812 2.125 -15.65625 C 2.40625 -15.925781 2.757812 -16.0625 3.1875 -16.0625 C 3.570312 -16.0625 3.898438 -15.925781 4.171875 -15.65625 C 4.453125 -15.382812 4.59375 -15.050781 4.59375 -14.65625 Z M 4.59375 -1.40625 "/></g></g></g><g fill="#0b43f2" fill-opacity="1"><g transform="translate(19.264867, 23.154456)"><g><path d="M 10.578125 -2.6875 C 10.972656 -2.6875 11.300781 -2.554688 11.5625 -2.296875 C 11.832031 -2.046875 11.96875 -1.722656 11.96875 -1.328125 C 11.96875 -0.941406 11.832031 -0.625 11.5625 -0.375 C 11.300781 -0.125 10.972656 0 10.578125 0 L 3.125 0 C 2.71875 0 2.378906 -0.128906 2.109375 -0.390625 C 1.847656 -0.660156 1.71875 -1 1.71875 -1.40625 L 1.71875 -14.65625 C 1.71875 -15.050781 1.851562 -15.382812 2.125 -15.65625 C 2.40625 -15.925781 2.757812 -16.0625 3.1875 -16.0625 C 3.570312 -16.0625 3.898438 -15.925781 4.171875 -15.65625 C 4.453125 -15.382812 4.59375 -15.050781 4.59375 -14.65625 L 4.59375 -2.6875 Z M 10.578125 -2.6875 "/></g></g></g><g fill="#0b43f2" fill-opacity="1"><g transform="translate(31.376211, 23.154456)"><g><path d="M 14.015625 -2.390625 C 14.109375 -2.265625 14.1875 -2.113281 14.25 -1.9375 C 14.3125 -1.757812 14.34375 -1.59375 14.34375 -1.4375 C 14.34375 -1.03125 14.179688 -0.6875 13.859375 -0.40625 C 13.546875 -0.132812 13.1875 0 12.78125 0 C 12.582031 0 12.390625 -0.046875 12.203125 -0.140625 C 12.015625 -0.234375 11.863281 -0.363281 11.75 -0.53125 L 6.765625 -7.09375 L 4.59375 -5 L 4.59375 -1.40625 C 4.59375 -0.988281 4.457031 -0.648438 4.1875 -0.390625 C 3.914062 -0.128906 3.566406 0 3.140625 0 C 2.722656 0 2.378906 -0.128906 2.109375 -0.390625 C 1.847656 -0.660156 1.71875 -1 1.71875 -1.40625 L 1.71875 -14.65625 C 1.71875 -15.050781 1.851562 -15.382812 2.125 -15.65625 C 2.40625 -15.925781 2.757812 -16.0625 3.1875 -16.0625 C 3.601562 -16.0625 3.941406 -15.929688 4.203125 -15.671875 C 4.460938 -15.410156 4.59375 -15.070312 4.59375 -14.65625 L 4.59375 -8.421875 L 11.921875 -15.640625 C 12.273438 -15.992188 12.648438 -16.171875 13.046875 -16.171875 C 13.398438 -16.171875 13.695312 -16.023438 13.9375 -15.734375 C 14.1875 -15.441406 14.3125 -15.132812 14.3125 -14.8125 C 14.3125 -14.5 14.175781 -14.203125 13.90625 -13.921875 L 8.90625 -9.15625 Z M 14.015625 -2.390625 "/></g></g></g><g fill="#0b43f2" fill-opacity="1"><g transform="translate(45.620813, 23.154456)"><g><path d="M 4.59375 -1.40625 C 4.59375 -1 4.445312 -0.660156 4.15625 -0.390625 C 3.863281 -0.128906 3.523438 0 3.140625 0 C 2.722656 0 2.378906 -0.128906 2.109375 -0.390625 C 1.847656 -0.660156 1.71875 -1 1.71875 -1.40625 L 1.71875 -14.65625 C 1.71875 -15.050781 1.851562 -15.382812 2.125 -15.65625 C 2.40625 -15.925781 2.757812 -16.0625 3.1875 -16.0625 C 3.570312 -16.0625 3.898438 -15.925781 4.171875 -15.65625 C 4.453125 -15.382812 4.59375 -15.050781 4.59375 -14.65625 Z M 4.59375 -1.40625 "/></g></g></g></g></g></svg>