<svg xmlns="http://www.w3.org/2000/svg" xmlns:xlink="http://www.w3.org/1999/xlink" width="500" zoomAndPan="magnify" viewBox="0 0 375 374.999991" height="500" preserveAspectRatio="xMidYMid meet" version="1.0"><defs><clipPath id="aef7be4786"><path d="M 56.414062 64.421875 L 327.519531 64.421875 L 327.519531 310.578125 L 56.414062 310.578125 Z M 56.414062 64.421875 " clip-rule="nonzero"/></clipPath><clipPath id="d086ca9ddc"><path d="M 191.972656 64.421875 C 174.121094 64.421875 156.445312 68.105469 139.953125 75.265625 C 123.464844 82.425781 108.476562 92.917969 95.859375 106.148438 C 83.238281 119.378906 73.226562 135.078125 66.394531 152.363281 C 60.894531 166.269531 57.542969 180.984375 56.445312 195.949219 C 56.425781 196.199219 56.414062 196.449219 56.414062 196.699219 L 56.414062 196.703125 C 56.414062 201.601562 59.949219 205.777344 64.671875 206.296875 C 64.996094 206.335938 65.320312 206.351562 65.640625 206.351562 C 70.207031 206.351562 74.15625 202.804688 74.769531 197.960938 C 76.992188 180.324219 91.753906 166.433594 109.894531 166.433594 C 124.6875 166.433594 137.277344 175.6875 142.59375 188.703125 C 144.046875 192.253906 147.378906 194.554688 151.0625 194.554688 C 151.070312 194.554688 151.074219 194.554688 151.078125 194.554688 C 154.769531 194.550781 158.101562 192.238281 159.546875 188.679688 C 163.511719 178.910156 171.535156 171.285156 181.472656 168.082031 L 181.472656 268.316406 C 181.472656 268.328125 181.464844 268.335938 181.453125 268.335938 C 181.4375 268.335938 181.429688 268.34375 181.429688 268.355469 C 181.429688 269.570312 181.316406 270.777344 181.105469 271.960938 C 180.839844 273.433594 180.410156 274.875 179.824219 276.261719 C 178.765625 278.777344 177.214844 281.058594 175.261719 282.980469 C 173.304688 284.902344 170.980469 286.429688 168.425781 287.472656 C 165.867188 288.515625 163.132812 289.046875 160.363281 289.046875 C 157.59375 289.046875 154.855469 288.511719 152.300781 287.472656 C 149.742188 286.433594 147.421875 284.90625 145.46875 282.980469 C 143.511719 281.054688 141.957031 278.777344 140.902344 276.261719 C 139.15625 272.113281 135.597656 268.335938 131.027344 268.335938 L 128.347656 268.335938 C 122.300781 268.335938 117.257812 273.234375 118.785156 278.984375 C 119.285156 280.859375 119.914062 282.703125 120.667969 284.503906 C 122.828125 289.628906 125.992188 294.285156 129.984375 298.207031 C 133.976562 302.128906 138.710938 305.242188 143.921875 307.363281 C 149.132812 309.484375 154.722656 310.578125 160.367188 310.578125 C 162.230469 310.578125 164.082031 310.457031 165.921875 310.222656 C 169.65625 309.746094 173.3125 308.785156 176.808594 307.363281 C 182.019531 305.242188 186.757812 302.128906 190.746094 298.207031 C 194.730469 294.285156 197.902344 289.628906 200.058594 284.503906 C 202.214844 279.375 203.332031 273.882812 203.332031 268.335938 L 203.332031 168.363281 C 213.242188 171.859375 221.144531 179.78125 224.832031 189.804688 C 226.203125 193.527344 229.621094 195.988281 233.429688 195.988281 C 233.433594 195.988281 233.4375 195.988281 233.4375 195.988281 C 237.253906 195.980469 240.671875 193.515625 242.035156 189.78125 C 247.019531 176.144531 259.71875 166.429688 274.621094 166.429688 C 292.351562 166.429688 306.929688 180.175781 309.164062 197.867188 C 309.78125 202.710938 313.726562 206.253906 318.289062 206.253906 C 318.609375 206.253906 318.9375 206.234375 319.261719 206.199219 C 323.957031 205.683594 327.472656 201.550781 327.515625 196.6875 L 327.515625 196.523438 C 327.515625 196.296875 327.503906 196.074219 327.484375 195.847656 C 326.378906 180.917969 323.03125 166.238281 317.546875 152.359375 C 310.714844 135.078125 300.703125 119.375 288.085938 106.144531 C 275.464844 92.914062 260.480469 82.425781 243.988281 75.265625 C 227.496094 68.105469 209.820312 64.421875 191.972656 64.421875 Z M 191.972656 64.421875 " clip-rule="nonzero"/></clipPath><clipPath id="a56fbd43fd"><path d="M 0.414062 0.421875 L 271.519531 0.421875 L 271.519531 246.578125 L 0.414062 246.578125 Z M 0.414062 0.421875 " clip-rule="nonzero"/></clipPath><clipPath id="229299e7d3"><path d="M 135.972656 0.421875 C 118.121094 0.421875 100.445312 4.105469 83.953125 11.265625 C 67.464844 18.425781 52.476562 28.917969 39.859375 42.148438 C 27.238281 55.378906 17.226562 71.078125 10.394531 88.363281 C 4.894531 102.269531 1.542969 116.984375 0.445312 131.949219 C 0.425781 132.199219 0.414062 132.449219 0.414062 132.699219 L 0.414062 132.703125 C 0.414062 137.601562 3.949219 141.777344 8.671875 142.296875 C 8.996094 142.335938 9.320312 142.351562 9.640625 142.351562 C 14.207031 142.351562 18.15625 138.804688 18.769531 133.960938 C 20.992188 116.324219 35.753906 102.433594 53.894531 102.433594 C 68.6875 102.433594 81.277344 111.6875 86.59375 124.703125 C 88.046875 128.253906 91.378906 130.554688 95.0625 130.554688 C 95.070312 130.554688 95.074219 130.554688 95.078125 130.554688 C 98.769531 130.550781 102.101562 128.238281 103.546875 124.679688 C 107.511719 114.910156 115.535156 107.285156 125.472656 104.082031 L 125.472656 204.316406 C 125.472656 204.328125 125.464844 204.335938 125.453125 204.335938 C 125.4375 204.335938 125.429688 204.34375 125.429688 204.355469 C 125.429688 205.570312 125.316406 206.777344 125.105469 207.960938 C 124.839844 209.433594 124.410156 210.875 123.824219 212.261719 C 122.765625 214.777344 121.214844 217.058594 119.261719 218.980469 C 117.304688 220.902344 114.980469 222.429688 112.425781 223.472656 C 109.867188 224.515625 107.132812 225.046875 104.363281 225.046875 C 101.59375 225.046875 98.855469 224.511719 96.300781 223.472656 C 93.742188 222.433594 91.421875 220.90625 89.46875 218.980469 C 87.511719 217.054688 85.957031 214.777344 84.902344 212.261719 C 83.15625 208.113281 79.597656 204.335938 75.027344 204.335938 L 72.347656 204.335938 C 66.300781 204.335938 61.257812 209.234375 62.785156 214.984375 C 63.285156 216.859375 63.914062 218.703125 64.667969 220.503906 C 66.828125 225.628906 69.992188 230.285156 73.984375 234.207031 C 77.976562 238.128906 82.710938 241.242188 87.921875 243.363281 C 93.132812 245.484375 98.722656 246.578125 104.367188 246.578125 C 106.230469 246.578125 108.082031 246.457031 109.921875 246.222656 C 113.65625 245.746094 117.3125 244.785156 120.808594 243.363281 C 126.019531 241.242188 130.757812 238.128906 134.746094 234.207031 C 138.730469 230.285156 141.902344 225.628906 144.058594 220.503906 C 146.214844 215.375 147.332031 209.882812 147.332031 204.335938 L 147.332031 104.363281 C 157.242188 107.859375 165.144531 115.78125 168.832031 125.804688 C 170.203125 129.527344 173.621094 131.988281 177.429688 131.988281 C 177.433594 131.988281 177.4375 131.988281 177.4375 131.988281 C 181.253906 131.980469 184.671875 129.515625 186.035156 125.78125 C 191.019531 112.144531 203.71875 102.429688 218.621094 102.429688 C 236.351562 102.429688 250.929688 116.175781 253.164062 133.867188 C 253.78125 138.710938 257.726562 142.253906 262.289062 142.253906 C 262.609375 142.253906 262.9375 142.234375 263.261719 142.199219 C 267.957031 141.683594 271.472656 137.550781 271.515625 132.6875 L 271.515625 132.523438 C 271.515625 132.296875 271.503906 132.074219 271.484375 131.847656 C 270.378906 116.917969 267.03125 102.238281 261.546875 88.359375 C 254.714844 71.078125 244.703125 55.375 232.085938 42.144531 C 219.464844 28.914062 204.480469 18.425781 187.988281 11.265625 C 171.496094 4.105469 153.820312 0.421875 135.972656 0.421875 Z M 135.972656 0.421875 " clip-rule="nonzero"/></clipPath><clipPath id="54b11f5e95"><rect x="0" width="272" y="0" height="247"/></clipPath></defs><g clip-path="url(#aef7be4786)"><g clip-path="url(#d086ca9ddc)"><g transform="matrix(1, 0, 0, 1, 56, 64)"><g clip-path="url(#54b11f5e95)"><g clip-path="url(#a56fbd43fd)"><g clip-path="url(#229299e7d3)"><path fill="#0b43f2" d="M 0.414062 0.421875 L 271.519531 0.421875 L 271.519531 246.578125 L 0.414062 246.578125 Z M 0.414062 0.421875 " fill-opacity="1" fill-rule="nonzero"/></g></g></g></g></g></g></svg>