<svg xmlns="http://www.w3.org/2000/svg" xmlns:xlink="http://www.w3.org/1999/xlink" width="500" zoomAndPan="magnify" viewBox="0 0 375 374.999991" height="500" preserveAspectRatio="xMidYMid meet" version="1.0"><defs><g/><clipPath id="e58257952d"><path d="M 79.9375 136.941406 L 147.757812 136.941406 L 147.757812 198.519531 L 79.9375 198.519531 Z M 79.9375 136.941406 " clip-rule="nonzero"/></clipPath><clipPath id="c2c5ad1ff7"><path d="M 113.847656 136.941406 C 109.382812 136.941406 104.960938 137.863281 100.835938 139.65625 C 96.710938 141.445312 92.964844 144.070312 89.804688 147.378906 C 86.648438 150.691406 84.144531 154.617188 82.4375 158.941406 C 81.058594 162.421875 80.222656 166.101562 79.945312 169.84375 C 79.941406 169.90625 79.9375 169.96875 79.9375 170.03125 L 79.9375 170.035156 C 79.9375 171.257812 80.824219 172.304688 82.003906 172.433594 C 82.085938 172.441406 82.167969 172.449219 82.246094 172.449219 C 83.390625 172.449219 84.378906 171.558594 84.53125 170.347656 C 85.085938 165.9375 88.78125 162.460938 93.316406 162.460938 C 97.019531 162.460938 100.167969 164.777344 101.496094 168.03125 C 101.859375 168.921875 102.695312 169.496094 103.617188 169.496094 C 103.617188 169.496094 103.617188 169.496094 103.621094 169.496094 C 104.542969 169.496094 105.375 168.917969 105.738281 168.027344 C 106.730469 165.582031 108.738281 163.675781 111.222656 162.875 L 111.222656 187.949219 C 111.222656 187.949219 111.222656 187.953125 111.21875 187.953125 C 111.214844 187.953125 111.210938 187.957031 111.210938 187.957031 C 111.210938 188.261719 111.183594 188.5625 111.132812 188.859375 C 111.066406 189.226562 110.957031 189.589844 110.8125 189.9375 C 110.546875 190.566406 110.15625 191.136719 109.667969 191.617188 C 109.179688 192.097656 108.597656 192.480469 107.960938 192.738281 C 107.320312 193 106.636719 193.132812 105.941406 193.132812 C 105.25 193.132812 104.566406 193 103.925781 192.738281 C 103.285156 192.480469 102.707031 192.097656 102.214844 191.617188 C 101.726562 191.136719 101.339844 190.566406 101.074219 189.9375 C 100.636719 188.898438 99.746094 187.953125 98.605469 187.953125 L 97.933594 187.953125 C 96.421875 187.953125 95.160156 189.179688 95.542969 190.617188 C 95.667969 191.085938 95.824219 191.546875 96.011719 191.996094 C 96.550781 193.28125 97.34375 194.445312 98.34375 195.425781 C 99.339844 196.40625 100.527344 197.183594 101.828125 197.714844 C 103.132812 198.246094 104.53125 198.519531 105.941406 198.519531 C 106.410156 198.519531 106.875 198.488281 107.332031 198.429688 C 108.265625 198.3125 109.183594 198.070312 110.054688 197.714844 C 111.359375 197.183594 112.546875 196.40625 113.542969 195.425781 C 114.539062 194.445312 115.332031 193.28125 115.871094 191.996094 C 116.414062 190.714844 116.691406 189.339844 116.691406 187.953125 L 116.691406 162.945312 C 119.171875 163.816406 121.148438 165.800781 122.070312 168.308594 C 122.414062 169.238281 123.269531 169.855469 124.222656 169.855469 C 125.175781 169.851562 126.03125 169.238281 126.371094 168.300781 C 127.621094 164.890625 130.796875 162.460938 134.523438 162.460938 C 138.960938 162.460938 142.605469 165.898438 143.167969 170.324219 C 143.320312 171.535156 144.308594 172.421875 145.449219 172.421875 C 145.527344 172.421875 145.609375 172.417969 145.691406 172.410156 C 146.867188 172.28125 147.746094 171.246094 147.757812 170.03125 L 147.757812 169.988281 C 147.757812 169.933594 147.753906 169.875 147.75 169.820312 C 147.472656 166.085938 146.636719 162.414062 145.261719 158.941406 C 143.554688 154.617188 141.050781 150.6875 137.894531 147.378906 C 134.734375 144.070312 130.988281 141.445312 126.863281 139.65625 C 122.738281 137.863281 118.316406 136.941406 113.847656 136.941406 Z M 113.847656 136.941406 " clip-rule="nonzero"/></clipPath><clipPath id="21e722eb3a"><path d="M 0.9375 0.941406 L 68.757812 0.941406 L 68.757812 62.519531 L 0.9375 62.519531 Z M 0.9375 0.941406 " clip-rule="nonzero"/></clipPath><clipPath id="f1b3564ded"><path d="M 34.847656 0.941406 C 30.382812 0.941406 25.960938 1.863281 21.835938 3.65625 C 17.710938 5.445312 13.964844 8.070312 10.804688 11.378906 C 7.648438 14.691406 5.144531 18.617188 3.4375 22.941406 C 2.058594 26.421875 1.222656 30.101562 0.945312 33.84375 C 0.941406 33.90625 0.9375 33.96875 0.9375 34.03125 L 0.9375 34.035156 C 0.9375 35.257812 1.824219 36.304688 3.003906 36.433594 C 3.085938 36.441406 3.167969 36.449219 3.246094 36.449219 C 4.390625 36.449219 5.378906 35.558594 5.53125 34.347656 C 6.085938 29.9375 9.78125 26.460938 14.316406 26.460938 C 18.019531 26.460938 21.167969 28.777344 22.496094 32.03125 C 22.859375 32.921875 23.695312 33.496094 24.617188 33.496094 C 24.617188 33.496094 24.617188 33.496094 24.621094 33.496094 C 25.542969 33.496094 26.375 32.917969 26.738281 32.027344 C 27.730469 29.582031 29.738281 27.675781 32.222656 26.875 L 32.222656 51.949219 C 32.222656 51.949219 32.222656 51.953125 32.21875 51.953125 C 32.214844 51.953125 32.210938 51.957031 32.210938 51.957031 C 32.210938 52.261719 32.183594 52.5625 32.132812 52.859375 C 32.066406 53.226562 31.957031 53.589844 31.8125 53.9375 C 31.546875 54.566406 31.15625 55.136719 30.667969 55.617188 C 30.179688 56.097656 29.597656 56.480469 28.960938 56.738281 C 28.320312 57 27.636719 57.132812 26.941406 57.132812 C 26.25 57.132812 25.566406 57 24.925781 56.738281 C 24.285156 56.480469 23.707031 56.097656 23.214844 55.617188 C 22.726562 55.136719 22.339844 54.566406 22.074219 53.9375 C 21.636719 52.898438 20.746094 51.953125 19.605469 51.953125 L 18.933594 51.953125 C 17.421875 51.953125 16.160156 53.179688 16.542969 54.617188 C 16.667969 55.085938 16.824219 55.546875 17.011719 55.996094 C 17.550781 57.28125 18.34375 58.445312 19.34375 59.425781 C 20.339844 60.40625 21.527344 61.183594 22.828125 61.714844 C 24.132812 62.246094 25.53125 62.519531 26.941406 62.519531 C 27.410156 62.519531 27.875 62.488281 28.332031 62.429688 C 29.265625 62.3125 30.183594 62.070312 31.054688 61.714844 C 32.359375 61.183594 33.546875 60.40625 34.542969 59.425781 C 35.539062 58.445312 36.332031 57.28125 36.871094 55.996094 C 37.414062 54.714844 37.691406 53.339844 37.691406 51.953125 L 37.691406 26.945312 C 40.171875 27.816406 42.148438 29.800781 43.070312 32.308594 C 43.414062 33.238281 44.269531 33.855469 45.222656 33.855469 C 46.175781 33.851562 47.03125 33.238281 47.371094 32.300781 C 48.621094 28.890625 51.796875 26.460938 55.523438 26.460938 C 59.960938 26.460938 63.605469 29.898438 64.167969 34.324219 C 64.320312 35.535156 65.308594 36.421875 66.449219 36.421875 C 66.527344 36.421875 66.609375 36.417969 66.691406 36.410156 C 67.867188 36.28125 68.746094 35.246094 68.757812 34.03125 L 68.757812 33.988281 C 68.757812 33.933594 68.753906 33.875 68.75 33.820312 C 68.472656 30.085938 67.636719 26.414062 66.261719 22.941406 C 64.554688 18.617188 62.050781 14.6875 58.894531 11.378906 C 55.734375 8.070312 51.988281 5.445312 47.863281 3.65625 C 43.738281 1.863281 39.316406 0.941406 34.847656 0.941406 Z M 34.847656 0.941406 " clip-rule="nonzero"/></clipPath><clipPath id="7bdf3f89e4"><rect x="0" width="69" y="0" height="63"/></clipPath></defs><g clip-path="url(#e58257952d)"><g clip-path="url(#c2c5ad1ff7)"><g transform="matrix(1, 0, 0, 1, 79, 136)"><g clip-path="url(#7bdf3f89e4)"><g clip-path="url(#21e722eb3a)"><g clip-path="url(#f1b3564ded)"><path fill="#f2f0ef" d="M 0.9375 0.941406 L 68.757812 0.941406 L 68.757812 62.519531 L 0.9375 62.519531 Z M 0.9375 0.941406 " fill-opacity="1" fill-rule="nonzero"/></g></g></g></g></g></g><g fill="#f2f0ef" fill-opacity="1"><g transform="translate(155.568568, 186.106277)"><g><path d="M 27.8125 -36.40625 C 28.75 -36.40625 29.507812 -36.125 30.09375 -35.5625 C 30.6875 -35.007812 30.984375 -34.285156 30.984375 -33.390625 C 30.984375 -32.484375 30.6875 -31.757812 30.09375 -31.21875 C 29.507812 -30.6875 28.75 -30.421875 27.8125 -30.421875 L 19.65625 -30.421875 L 19.65625 -3.171875 C 19.65625 -2.265625 19.328125 -1.507812 18.671875 -0.90625 C 18.015625 -0.300781 17.195312 0 16.21875 0 C 15.25 0 14.453125 -0.300781 13.828125 -0.90625 C 13.203125 -1.507812 12.890625 -2.265625 12.890625 -3.171875 L 12.890625 -30.421875 L 4.734375 -30.421875 C 3.796875 -30.421875 3.03125 -30.695312 2.4375 -31.25 C 1.851562 -31.800781 1.5625 -32.53125 1.5625 -33.4375 C 1.5625 -34.300781 1.863281 -35.007812 2.46875 -35.5625 C 3.070312 -36.125 3.828125 -36.40625 4.734375 -36.40625 Z M 27.8125 -36.40625 "/></g></g></g><g fill="#f2f0ef" fill-opacity="1"><g transform="translate(186.350094, 186.106277)"><g><path d="M 10.40625 -3.171875 C 10.40625 -2.265625 10.070312 -1.507812 9.40625 -0.90625 C 8.75 -0.300781 7.988281 0 7.125 0 C 6.1875 0 5.414062 -0.300781 4.8125 -0.90625 C 4.207031 -1.507812 3.90625 -2.265625 3.90625 -3.171875 L 3.90625 -33.234375 C 3.90625 -34.128906 4.210938 -34.878906 4.828125 -35.484375 C 5.453125 -36.097656 6.253906 -36.40625 7.234375 -36.40625 C 8.097656 -36.40625 8.84375 -36.097656 9.46875 -35.484375 C 10.09375 -34.878906 10.40625 -34.128906 10.40625 -33.234375 Z M 10.40625 -3.171875 "/></g></g></g><g fill="#f2f0ef" fill-opacity="1"><g transform="translate(198.881008, 186.106277)"><g><path d="M 23.96875 -6.078125 C 24.875 -6.078125 25.628906 -5.789062 26.234375 -5.21875 C 26.835938 -4.65625 27.140625 -3.921875 27.140625 -3.015625 C 27.140625 -2.148438 26.835938 -1.429688 26.234375 -0.859375 C 25.628906 -0.285156 24.875 0 23.96875 0 L 7.078125 0 C 6.171875 0 5.414062 -0.300781 4.8125 -0.90625 C 4.207031 -1.507812 3.90625 -2.265625 3.90625 -3.171875 L 3.90625 -33.234375 C 3.90625 -34.128906 4.210938 -34.878906 4.828125 -35.484375 C 5.453125 -36.097656 6.253906 -36.40625 7.234375 -36.40625 C 8.097656 -36.40625 8.84375 -36.097656 9.46875 -35.484375 C 10.09375 -34.878906 10.40625 -34.128906 10.40625 -33.234375 L 10.40625 -6.078125 Z M 23.96875 -6.078125 "/></g></g></g><g fill="#f2f0ef" fill-opacity="1"><g transform="translate(226.334788, 186.106277)"><g><path d="M 31.765625 -5.40625 C 31.972656 -5.125 32.144531 -4.785156 32.28125 -4.390625 C 32.425781 -3.992188 32.5 -3.625 32.5 -3.28125 C 32.5 -2.34375 32.144531 -1.5625 31.4375 -0.9375 C 30.726562 -0.3125 29.90625 0 28.96875 0 C 28.507812 0 28.070312 -0.101562 27.65625 -0.3125 C 27.25 -0.519531 26.90625 -0.816406 26.625 -1.203125 L 15.34375 -16.0625 L 10.40625 -11.34375 L 10.40625 -3.171875 C 10.40625 -2.234375 10.097656 -1.46875 9.484375 -0.875 C 8.878906 -0.289062 8.09375 0 7.125 0 C 6.1875 0 5.414062 -0.300781 4.8125 -0.90625 C 4.207031 -1.507812 3.90625 -2.265625 3.90625 -3.171875 L 3.90625 -33.234375 C 3.90625 -34.128906 4.210938 -34.878906 4.828125 -35.484375 C 5.453125 -36.097656 6.253906 -36.40625 7.234375 -36.40625 C 8.160156 -36.40625 8.921875 -36.109375 9.515625 -35.515625 C 10.109375 -34.921875 10.40625 -34.160156 10.40625 -33.234375 L 10.40625 -19.078125 L 27.046875 -35.46875 C 27.835938 -36.257812 28.6875 -36.65625 29.59375 -36.65625 C 30.382812 -36.65625 31.054688 -36.328125 31.609375 -35.671875 C 32.171875 -35.015625 32.453125 -34.320312 32.453125 -33.59375 C 32.453125 -32.863281 32.140625 -32.1875 31.515625 -31.5625 L 20.171875 -20.75 Z M 31.765625 -5.40625 "/></g></g></g><g fill="#f2f0ef" fill-opacity="1"><g transform="translate(258.624199, 186.106277)"><g><path d="M 10.40625 -3.171875 C 10.40625 -2.265625 10.070312 -1.507812 9.40625 -0.90625 C 8.75 -0.300781 7.988281 0 7.125 0 C 6.1875 0 5.414062 -0.300781 4.8125 -0.90625 C 4.207031 -1.507812 3.90625 -2.265625 3.90625 -3.171875 L 3.90625 -33.234375 C 3.90625 -34.128906 4.210938 -34.878906 4.828125 -35.484375 C 5.453125 -36.097656 6.253906 -36.40625 7.234375 -36.40625 C 8.097656 -36.40625 8.84375 -36.097656 9.46875 -35.484375 C 10.09375 -34.878906 10.40625 -34.128906 10.40625 -33.234375 Z M 10.40625 -3.171875 "/></g></g></g></svg>