<svg xmlns="http://www.w3.org/2000/svg" xmlns:xlink="http://www.w3.org/1999/xlink" width="500" zoomAndPan="magnify" viewBox="0 0 375 374.999991" height="500" preserveAspectRatio="xMidYMid meet" version="1.0"><defs><g/><clipPath id="4d0300bb73"><path d="M 79.9375 156.21875 L 147.757812 156.21875 L 147.757812 217.796875 L 79.9375 217.796875 Z M 79.9375 156.21875 " clip-rule="nonzero"/></clipPath><clipPath id="f237624ddc"><path d="M 113.847656 156.21875 C 109.382812 156.21875 104.960938 157.140625 100.835938 158.929688 C 96.710938 160.722656 92.964844 163.347656 89.804688 166.65625 C 86.648438 169.964844 84.144531 173.894531 82.4375 178.21875 C 81.058594 181.695312 80.222656 185.375 79.945312 189.121094 C 79.941406 189.183594 79.9375 189.246094 79.9375 189.308594 C 79.9375 190.535156 80.824219 191.578125 82.003906 191.710938 C 82.085938 191.71875 82.167969 191.722656 82.246094 191.722656 C 83.390625 191.722656 84.378906 190.835938 84.53125 189.625 C 85.085938 185.210938 88.78125 181.738281 93.316406 181.738281 C 97.019531 181.738281 100.167969 184.050781 101.496094 187.308594 C 101.859375 188.195312 102.695312 188.773438 103.617188 188.773438 C 103.617188 188.773438 103.617188 188.773438 103.621094 188.773438 C 104.542969 188.769531 105.375 188.191406 105.738281 187.300781 C 106.730469 184.859375 108.738281 182.949219 111.222656 182.148438 L 111.222656 207.222656 C 111.222656 207.226562 111.222656 207.230469 111.21875 207.230469 C 111.214844 207.230469 111.210938 207.230469 111.210938 207.234375 C 111.210938 207.539062 111.183594 207.839844 111.132812 208.136719 C 111.066406 208.503906 110.957031 208.863281 110.8125 209.210938 C 110.546875 209.839844 110.15625 210.410156 109.667969 210.890625 C 109.179688 211.371094 108.597656 211.753906 107.960938 212.015625 C 107.320312 212.277344 106.636719 212.410156 105.941406 212.410156 C 105.25 212.410156 104.566406 212.273438 103.925781 212.015625 C 103.285156 211.753906 102.707031 211.375 102.214844 210.890625 C 101.726562 210.410156 101.339844 209.839844 101.074219 209.210938 C 100.636719 208.171875 99.746094 207.230469 98.605469 207.230469 L 97.933594 207.230469 C 96.421875 207.230469 95.160156 208.453125 95.542969 209.890625 C 95.667969 210.363281 95.824219 210.824219 96.011719 211.273438 C 96.550781 212.554688 97.34375 213.71875 98.34375 214.699219 C 99.339844 215.683594 100.527344 216.460938 101.828125 216.992188 C 103.132812 217.523438 104.53125 217.796875 105.941406 217.796875 C 106.410156 217.796875 106.875 217.765625 107.332031 217.707031 C 108.265625 217.585938 109.183594 217.347656 110.054688 216.992188 C 111.359375 216.460938 112.546875 215.683594 113.542969 214.699219 C 114.539062 213.71875 115.332031 212.554688 115.871094 211.273438 C 116.414062 209.988281 116.691406 208.617188 116.691406 207.230469 L 116.691406 182.21875 C 119.171875 183.09375 121.148438 185.078125 122.070312 187.582031 C 122.414062 188.515625 123.269531 189.128906 124.222656 189.128906 C 125.175781 189.128906 126.03125 188.511719 126.371094 187.578125 C 127.621094 184.167969 130.796875 181.738281 134.523438 181.738281 C 138.960938 181.738281 142.605469 185.175781 143.167969 189.601562 C 143.320312 190.8125 144.308594 191.699219 145.449219 191.699219 C 145.527344 191.699219 145.609375 191.695312 145.691406 191.683594 C 146.867188 191.554688 147.746094 190.523438 147.757812 189.304688 L 147.757812 189.265625 C 147.757812 189.207031 147.753906 189.152344 147.75 189.09375 C 147.472656 185.359375 146.636719 181.6875 145.261719 178.214844 C 143.554688 173.894531 141.050781 169.964844 137.894531 166.65625 C 134.734375 163.34375 130.988281 160.722656 126.863281 158.929688 C 122.738281 157.140625 118.316406 156.21875 113.847656 156.21875 Z M 113.847656 156.21875 " clip-rule="nonzero"/></clipPath><clipPath id="629ec04d03"><path d="M 0.9375 0.21875 L 68.757812 0.21875 L 68.757812 61.796875 L 0.9375 61.796875 Z M 0.9375 0.21875 " clip-rule="nonzero"/></clipPath><clipPath id="21582077c1"><path d="M 34.847656 0.21875 C 30.382812 0.21875 25.960938 1.140625 21.835938 2.929688 C 17.710938 4.722656 13.964844 7.347656 10.804688 10.65625 C 7.648438 13.964844 5.144531 17.894531 3.4375 22.21875 C 2.058594 25.695312 1.222656 29.375 0.945312 33.121094 C 0.941406 33.183594 0.9375 33.246094 0.9375 33.308594 C 0.9375 34.535156 1.824219 35.578125 3.003906 35.710938 C 3.085938 35.71875 3.167969 35.722656 3.246094 35.722656 C 4.390625 35.722656 5.378906 34.835938 5.53125 33.625 C 6.085938 29.210938 9.78125 25.738281 14.316406 25.738281 C 18.019531 25.738281 21.167969 28.050781 22.496094 31.308594 C 22.859375 32.195312 23.695312 32.773438 24.617188 32.773438 C 24.617188 32.773438 24.617188 32.773438 24.621094 32.773438 C 25.542969 32.769531 26.375 32.191406 26.738281 31.300781 C 27.730469 28.859375 29.738281 26.949219 32.222656 26.148438 L 32.222656 51.222656 C 32.222656 51.226562 32.222656 51.230469 32.21875 51.230469 C 32.214844 51.230469 32.210938 51.230469 32.210938 51.234375 C 32.210938 51.539062 32.183594 51.839844 32.132812 52.136719 C 32.066406 52.503906 31.957031 52.863281 31.8125 53.210938 C 31.546875 53.839844 31.15625 54.410156 30.667969 54.890625 C 30.179688 55.371094 29.597656 55.753906 28.960938 56.015625 C 28.320312 56.277344 27.636719 56.410156 26.941406 56.410156 C 26.25 56.410156 25.566406 56.273438 24.925781 56.015625 C 24.285156 55.753906 23.707031 55.375 23.214844 54.890625 C 22.726562 54.410156 22.339844 53.839844 22.074219 53.210938 C 21.636719 52.171875 20.746094 51.230469 19.605469 51.230469 L 18.933594 51.230469 C 17.421875 51.230469 16.160156 52.453125 16.542969 53.890625 C 16.667969 54.363281 16.824219 54.824219 17.011719 55.273438 C 17.550781 56.554688 18.34375 57.71875 19.34375 58.699219 C 20.339844 59.683594 21.527344 60.460938 22.828125 60.992188 C 24.132812 61.523438 25.53125 61.796875 26.941406 61.796875 C 27.410156 61.796875 27.875 61.765625 28.332031 61.707031 C 29.265625 61.585938 30.183594 61.347656 31.054688 60.992188 C 32.359375 60.460938 33.546875 59.683594 34.542969 58.699219 C 35.539062 57.71875 36.332031 56.554688 36.871094 55.273438 C 37.414062 53.988281 37.691406 52.617188 37.691406 51.230469 L 37.691406 26.21875 C 40.171875 27.09375 42.148438 29.078125 43.070312 31.582031 C 43.414062 32.515625 44.269531 33.128906 45.222656 33.128906 C 46.175781 33.128906 47.03125 32.511719 47.371094 31.578125 C 48.621094 28.167969 51.796875 25.738281 55.523438 25.738281 C 59.960938 25.738281 63.605469 29.175781 64.167969 33.601562 C 64.320312 34.8125 65.308594 35.699219 66.449219 35.699219 C 66.527344 35.699219 66.609375 35.695312 66.691406 35.683594 C 67.867188 35.554688 68.746094 34.523438 68.757812 33.304688 L 68.757812 33.265625 C 68.757812 33.207031 68.753906 33.152344 68.75 33.09375 C 68.472656 29.359375 67.636719 25.6875 66.261719 22.214844 C 64.554688 17.894531 62.050781 13.964844 58.894531 10.65625 C 55.734375 7.34375 51.988281 4.722656 47.863281 2.929688 C 43.738281 1.140625 39.316406 0.21875 34.847656 0.21875 Z M 34.847656 0.21875 " clip-rule="nonzero"/></clipPath><clipPath id="da38ed3804"><rect x="0" width="69" y="0" height="62"/></clipPath></defs><g clip-path="url(#4d0300bb73)"><g clip-path="url(#f237624ddc)"><g transform="matrix(1, 0, 0, 1, 79, 156)"><g clip-path="url(#da38ed3804)"><g clip-path="url(#629ec04d03)"><g clip-path="url(#21582077c1)"><path fill="#0b43f2" d="M 0.9375 0.21875 L 68.757812 0.21875 L 68.757812 61.796875 L 0.9375 61.796875 Z M 0.9375 0.21875 " fill-opacity="1" fill-rule="nonzero"/></g></g></g></g></g></g><g fill="#0b43f2" fill-opacity="1"><g transform="translate(155.568568, 205.981846)"><g><path d="M 27.8125 -36.40625 C 28.75 -36.40625 29.507812 -36.125 30.09375 -35.5625 C 30.6875 -35.007812 30.984375 -34.285156 30.984375 -33.390625 C 30.984375 -32.484375 30.6875 -31.757812 30.09375 -31.21875 C 29.507812 -30.6875 28.75 -30.421875 27.8125 -30.421875 L 19.65625 -30.421875 L 19.65625 -3.171875 C 19.65625 -2.265625 19.328125 -1.507812 18.671875 -0.90625 C 18.015625 -0.300781 17.195312 0 16.21875 0 C 15.25 0 14.453125 -0.300781 13.828125 -0.90625 C 13.203125 -1.507812 12.890625 -2.265625 12.890625 -3.171875 L 12.890625 -30.421875 L 4.734375 -30.421875 C 3.796875 -30.421875 3.03125 -30.695312 2.4375 -31.25 C 1.851562 -31.800781 1.5625 -32.53125 1.5625 -33.4375 C 1.5625 -34.300781 1.863281 -35.007812 2.46875 -35.5625 C 3.070312 -36.125 3.828125 -36.40625 4.734375 -36.40625 Z M 27.8125 -36.40625 "/></g></g></g><g fill="#0b43f2" fill-opacity="1"><g transform="translate(186.350094, 205.981846)"><g><path d="M 10.40625 -3.171875 C 10.40625 -2.265625 10.070312 -1.507812 9.40625 -0.90625 C 8.75 -0.300781 7.988281 0 7.125 0 C 6.1875 0 5.414062 -0.300781 4.8125 -0.90625 C 4.207031 -1.507812 3.90625 -2.265625 3.90625 -3.171875 L 3.90625 -33.234375 C 3.90625 -34.128906 4.210938 -34.878906 4.828125 -35.484375 C 5.453125 -36.097656 6.253906 -36.40625 7.234375 -36.40625 C 8.097656 -36.40625 8.84375 -36.097656 9.46875 -35.484375 C 10.09375 -34.878906 10.40625 -34.128906 10.40625 -33.234375 Z M 10.40625 -3.171875 "/></g></g></g><g fill="#0b43f2" fill-opacity="1"><g transform="translate(198.881008, 205.981846)"><g><path d="M 23.96875 -6.078125 C 24.875 -6.078125 25.628906 -5.789062 26.234375 -5.21875 C 26.835938 -4.65625 27.140625 -3.921875 27.140625 -3.015625 C 27.140625 -2.148438 26.835938 -1.429688 26.234375 -0.859375 C 25.628906 -0.285156 24.875 0 23.96875 0 L 7.078125 0 C 6.171875 0 5.414062 -0.300781 4.8125 -0.90625 C 4.207031 -1.507812 3.90625 -2.265625 3.90625 -3.171875 L 3.90625 -33.234375 C 3.90625 -34.128906 4.210938 -34.878906 4.828125 -35.484375 C 5.453125 -36.097656 6.253906 -36.40625 7.234375 -36.40625 C 8.097656 -36.40625 8.84375 -36.097656 9.46875 -35.484375 C 10.09375 -34.878906 10.40625 -34.128906 10.40625 -33.234375 L 10.40625 -6.078125 Z M 23.96875 -6.078125 "/></g></g></g><g fill="#0b43f2" fill-opacity="1"><g transform="translate(226.334788, 205.981846)"><g><path d="M 31.765625 -5.40625 C 31.972656 -5.125 32.144531 -4.785156 32.28125 -4.390625 C 32.425781 -3.992188 32.5 -3.625 32.5 -3.28125 C 32.5 -2.34375 32.144531 -1.5625 31.4375 -0.9375 C 30.726562 -0.3125 29.90625 0 28.96875 0 C 28.507812 0 28.070312 -0.101562 27.65625 -0.3125 C 27.25 -0.519531 26.90625 -0.816406 26.625 -1.203125 L 15.34375 -16.0625 L 10.40625 -11.34375 L 10.40625 -3.171875 C 10.40625 -2.234375 10.097656 -1.46875 9.484375 -0.875 C 8.878906 -0.289062 8.09375 0 7.125 0 C 6.1875 0 5.414062 -0.300781 4.8125 -0.90625 C 4.207031 -1.507812 3.90625 -2.265625 3.90625 -3.171875 L 3.90625 -33.234375 C 3.90625 -34.128906 4.210938 -34.878906 4.828125 -35.484375 C 5.453125 -36.097656 6.253906 -36.40625 7.234375 -36.40625 C 8.160156 -36.40625 8.921875 -36.109375 9.515625 -35.515625 C 10.109375 -34.921875 10.40625 -34.160156 10.40625 -33.234375 L 10.40625 -19.078125 L 27.046875 -35.46875 C 27.835938 -36.257812 28.6875 -36.65625 29.59375 -36.65625 C 30.382812 -36.65625 31.054688 -36.328125 31.609375 -35.671875 C 32.171875 -35.015625 32.453125 -34.320312 32.453125 -33.59375 C 32.453125 -32.863281 32.140625 -32.1875 31.515625 -31.5625 L 20.171875 -20.75 Z M 31.765625 -5.40625 "/></g></g></g><g fill="#0b43f2" fill-opacity="1"><g transform="translate(258.624199, 205.981846)"><g><path d="M 10.40625 -3.171875 C 10.40625 -2.265625 10.070312 -1.507812 9.40625 -0.90625 C 8.75 -0.300781 7.988281 0 7.125 0 C 6.1875 0 5.414062 -0.300781 4.8125 -0.90625 C 4.207031 -1.507812 3.90625 -2.265625 3.90625 -3.171875 L 3.90625 -33.234375 C 3.90625 -34.128906 4.210938 -34.878906 4.828125 -35.484375 C 5.453125 -36.097656 6.253906 -36.40625 7.234375 -36.40625 C 8.097656 -36.40625 8.84375 -36.097656 9.46875 -35.484375 C 10.09375 -34.878906 10.40625 -34.128906 10.40625 -33.234375 Z M 10.40625 -3.171875 "/></g></g></g></svg>